<svg xmlns="http://www.w3.org/2000/svg" viewBox="0 0 696.14 209.63"> 											<defs></defs> 											<title>Campesí</title> 											<g id="LogoCampesi" data-name="Logo 2"> 												<g id="LogoCampesi-2" data-name="Logo"> 													<path fill="#fff" class="campesiLogoC" d="M476.51,89c-2.6-14-19-16-28.13-15.14h-.16a52.08,52.08,0,0,0-6.09.7c-6.51,1.18-25.63,5.83-29.65,13.34-3,5.53-1.61,9.39-6.06,18.37-1.26,2.55-2.65,5.4-4.4,9.3C389.81,142.84,366.65,188,357.87,205l-.52,1a2.73,2.73,0,0,0,2.3,3c19.52,4,28-12.53,29.44-15.12a249.69,249.69,0,0,0,16.47-35.42c.72-1.92,1.42-3.79,2.12-5.61a3.43,3.43,0,0,1,3-2.4,3.54,3.54,0,0,1,3.19,1.89,9.4,9.4,0,0,0,5.81,4.91c11,3.45,25.88-4.33,39.88-20.84C463.14,132.29,480.53,110.46,476.51,89ZM459,100.34h0c-3.82,10.9-16.64,29.17-28.85,34.17a15.17,15.17,0,0,1-5.87,1.27,10.77,10.77,0,0,1-4.82-1.1c-3.64-1.79-4.21-6.06-3.6-9.17,2.4-12.13,8.86-23.72,18.7-33.51C441,86.53,449,84.59,454.4,87.08c5,2.28,6.66,7.24,4.58,13.26Z"></path> 													<path fill="#fff" class="campesiLogoC" d="M695.06,41.85C693.82,40,691.35,39,688.34,39a17,17,0,0,0-5,.81C669.56,44.51,655.05,55,651.05,60.87c0,.07-.09.13-.13.19-.88,1.47-1.68,3.49-.61,4.94a3.29,3.29,0,0,0,1.62,1.13c1.71.61,4.4.55,8-.18,15.22-3.39,27-8.1,34.13-16.1A7.41,7.41,0,0,0,695.06,41.85Z"></path> 													<path fill="#fff" class="campesiLogoC" d="M166.18,21C154.53,2.77,128.38,0,113.83,0A95.66,95.66,0,0,0,96.94,1.35C51.93,9.85,16.06,38.85,3.33,77c-5.72,17.17-5,43.62,9.47,64,12.26,17.3,32.16,26.44,57.52,26.44,15,0,28.48-2.3,40-6.81,12.83-5,17.66-9.74,22.66-15.43a8.59,8.59,0,0,0,1.67-5.58,2.52,2.52,0,0,0-1.23-1.85c-2.18-1.28-5-2.37-11,1.08-.61.35-2.2,1.22-3.16,1.74l-.35.2c-20.85,11.42-50.24,17.78-69.85,1.36C37,132.05,30.24,117.74,29.6,100.79a81.22,81.22,0,0,1,22-58.85C66.54,26.27,82.74,16.45,99.77,12.75c24.39-5.31,37.1,2,44.54,7.9,9.62,7.67,12.38,15.25,14.4,20.78l.17.46a2.36,2.36,0,0,0,2,1.73c2.1.27,4.93-1.84,6.52-3.94C170.62,35.35,170.11,27.15,166.18,21Z"></path> 													<path fill="#fff" class="campesiLogoC" d="M539.92,136.11c-1.72-.8-4,.43-7.07,2.67-5.57,4.15-13.22,6.84-14.7,7.34-5.06,1.3-9.35,1-12.5-.77-2.93-1.67-5.69-3.33-4.91-11a3.12,3.12,0,0,1,2.21-2.71c26.13-7.13,43.94-22.58,49.07-39.21a20.42,20.42,0,0,0,1.08-5.36,13.4,13.4,0,0,0-5.59-10.27,19.41,19.41,0,0,0-11.21-3.12c-6.92,0-15,2.61-22.66,7.61-28.43,19.79-36.93,45.64-37.28,46.73-3.19,10-1.79,18,4.15,23.61s19.11,9.9,36.53,3.16c6.34-2,13.28-6.39,20.15-12.64C539.83,139.73,541.67,136.92,539.92,136.11ZM508.13,110h0a4.5,4.5,0,0,1,.14-.49c2.8-7.53,9.86-16.24,19.37-23.88,4.73-3.6,9.81-4.35,13-1.94,2.47,1.89,3.1,5.23,1.63,8.71-4.22,10-11.31,16-21.39,22.45-3.11,1.89-5.59,2.8-7.63,2.8a5.25,5.25,0,0,1-3.07-.89C509.06,115.94,507.34,114.07,508.13,110Z"></path> 													<path fill="#fff" class="campesiLogoC" d="M626.06,83.37c-2-4.07-9.4-10.18-23-10.18-19,0-35.48,9.23-42.08,22.92-3,6.29-2.9,11.32-1.08,15.37,3,6.64,11,8.49,19.2,11,6.75,2,9.87,5.47,11.09,10.74,1,4.11-.76,16.43-16.82,16.79-10.38.22-17.78-4.48-20.15-11.9-.88-2.76-2.9-4.45-4.19-4.5-2.34-.1-2.79,4.7-1.67,8.08,2.25,6.75,11.16,16.56,27.31,16.59,19.53,0,31.49-6.72,38.42-21.09a20.87,20.87,0,0,0,.47-17.22c-3-6.73-10.83-10.54-19.21-12.59-5.47-1.34-9.25-1.66-12.44-5.49-1.62-2-2.27-6.76.17-10.58,4.07-6.35,10.42-9.08,19-9.48,11.43-.53,14.78,8.45,15.45,13.28.08.62.15,1.15.24,1.58l.06.28a2.66,2.66,0,0,0,2.29,2.22c2.14.27,4.54-1.68,5.62-2.87C627.55,93.21,628.12,87.65,626.06,83.37Z"></path> 													<path fill="#fff" class="campesiLogoC" d="M241.86,83.11a10.39,10.39,0,0,0-5.71-6.06c-18.73-9.15-46.92.66-70.15,24.43-12,12.27-19,25.08-20.17,37.05-.91,9,1.34,15.45,6.32,18.16,8.67,4.71,23.08.1,40.12-14.36a3.28,3.28,0,0,1,2.07-.76,3.19,3.19,0,0,1,3.2,3.19,3.08,3.08,0,0,1-.08.68c-1,4.42-.74,9.25,4.17,11.91,6,3.23,20.14-1.17,31.73-12.89l.5-.53h0c1.83-1.93,2.94-4.29,2.81-5.1-.06-.39-.59-.45-.75-.47a8.72,8.72,0,0,0-2.27.28l-1,.19a18.17,18.17,0,0,1-4.59.52,3.47,3.47,0,0,1-2.71-1.47c-.71-.94-1.75-3.1-.7-7,1.46-5.48,7.33-17.25,13-28.63l.66-1.32C242.11,93.32,243.3,87.34,241.86,83.11Zm-48.22,51.21a19.25,19.25,0,0,1-9.6,2.78,12.46,12.46,0,0,1-6.37-1.62,9.76,9.76,0,0,1-4.77-9.14c.32-11.44,7.52-22.1,22.64-33.54,7.94-6,16.7-8.37,22.33-6a6.91,6.91,0,0,1,3.79,4c.66,1.77,1,4.77-1,9h0l-.56,1.11C216.88,107.22,207.24,126.45,193.64,134.32Z"></path> 													<path fill="#fff" class="campesiLogoC" d="M390.9,76.18c-2.56-2.3-6-2.63-9.57-.91-2.15,1.15-5.33,3.13-9,5.61-2.11,1.34-4.76,3.14-8.38,5.75h0l-1,.68c-4.85,3.3-9.83,7-14.73,11-1.53,1.21-3,2.4-4.41,3.55a3.2,3.2,0,0,1-.8.51h-.11a1.13,1.13,0,0,1-.36.14,3.41,3.41,0,0,1-1.35.15,3.56,3.56,0,0,1-3-4,4,4,0,0,1,.41-1.21c3.35-6,5.84-8.89,7.5-13.45a8.4,8.4,0,0,0-2-8c-2.56-2.3-6-2.64-9.57-.91-7.47,3.87-32,22-32,22l-1.47,1.25c-1.53,1.21-3,2.4-4.42,3.55a3.2,3.2,0,0,1-.8.51h-.1a1.42,1.42,0,0,1-.36.14,3.33,3.33,0,0,1-1.26.15H294l-.32-.07h-.11a3.64,3.64,0,0,1-1.22-.63,3.8,3.8,0,0,1-.88-4.51c1.46-3.53,3.3-8.32,5-12.65a7.54,7.54,0,0,0-1.33-8.16,8.84,8.84,0,0,0-10.68-.78c-9.84,5.7-42.77,72.75-42.77,72.75-2.13,4-2.5,7.62-.89,8.79a3.46,3.46,0,0,0,1.44.54c3.54.76,11.29-1.79,21.49-12.4,3.72-3.91,9.75-9.36,14.9-15.18.29-.3.58-.61.86-.93.66-.77,1.36-1.56,2.07-2.37,4.35-4.74,11.18-11.58,16.55-16.77q4.46-4.27,9.32-8.09c1.06-.77,3.79-2.41,5.77-1.21a3.88,3.88,0,0,1,1.46,4.69,31,31,0,0,1-2.27,5.14L290.29,148.6c-2.13,4-2.5,7.62-.89,8.79a4.59,4.59,0,0,0,2.89.63c1.95-.05,9.11-1.08,20.09-12.49,3.9-4.1,8.93-9.94,14.24-16.11,1.68-1.95,3.5-4,5.57-6.24,4.73-4.92,10.77-10.88,15.16-15.06,3.2-2.92,6.32-5.44,7-5.93,1.07-.77,3.79-2.41,5.78-1.21a3.88,3.88,0,0,1,1.46,4.69,32.76,32.76,0,0,1-2.27,5.14l-.14.26-1,1.75c-1.48,2.72-3,5.46-4.46,8.25l-.05.1h0a162.11,162.11,0,0,0-11.33,26c-.71,3.06-.76,7.22,3.12,9.51a9.82,9.82,0,0,0,2.42,1H348l.28.07c6.64,1.84,19.45-2.54,30.09-13.3l.51-.53h0c1.83-1.93,2.93-4.29,2.8-5.1-.06-.39-.58-.45-.75-.47h-.52a15.19,15.19,0,0,0-2,.34l-.75.14-.82.16a17.36,17.36,0,0,1-3.53.31,4.18,4.18,0,0,1-3.76-3v-.13a8.16,8.16,0,0,1-.39-2.31,11.52,11.52,0,0,1,.37-2.47c2.51-8.88,9-18.77,14.4-29.23l1.24-2.44.67-1.32c.26-.5.44-.82.49-.92A114.47,114.47,0,0,0,391.9,86.6h0c.34-.74.67-1.53,1-2.39C393.63,82.14,393.06,78.15,390.9,76.18Z"></path> 													<path fill="#fff" class="campesiLogoC" d="M667.57,75.65c-2.22-2.08-6.69-3.13-11.57-.68-10.26,5.72-33.19,58.95-37.93,72.05-.93,3-.78,7.55,3.29,9.94a13.83,13.83,0,0,0,8.66,1.38c7-.34,17.3-5,26.08-13.88.12-.12.24-.24.35-.37a12,12,0,0,0,1.57-1.91,2.07,2.07,0,0,0,.38-.62,5.31,5.31,0,0,0,1-2.74c-.06-.39-.58-.45-.75-.47a8.64,8.64,0,0,0-2.26.28l-1,.19a20.87,20.87,0,0,1-4.74.43,3.38,3.38,0,0,1-1.94-.72,5.57,5.57,0,0,1-1.75-4.2,13.36,13.36,0,0,1,.43-2.88c2.5-8.84,20.07-43.84,21.6-48C670.29,79.85,669.79,77.72,667.57,75.65Z"></path> 												</g> 											</g> 										</svg>