<svg width="24" height="24" viewBox="0 0 24 24" fill="none" xmlns="http://www.w3.org/2000/svg">
<g clip-path="url(#clip0_1512_132)">
<path d="M21 4.50006H3C2.60218 4.50006 2.22064 4.6581 1.93934 4.9394C1.65804 5.22071 1.5 5.60224 1.5 6.00006V18.0001C1.5 18.3979 1.65804 18.7794 1.93934 19.0607C2.22064 19.342 2.60218 19.5001 3 19.5001H21C21.3978 19.5001 21.7794 19.342 22.0607 19.0607C22.342 18.7794 22.5 18.3979 22.5 18.0001V6.00006C22.5 5.60224 22.342 5.22071 22.0607 4.9394C21.7794 4.6581 21.3978 4.50006 21 4.50006ZM12.75 16.5001H11.25C11.0511 16.5001 10.8603 16.421 10.7197 16.2804C10.579 16.1397 10.5 15.949 10.5 15.7501C10.5 15.5511 10.579 15.3604 10.7197 15.2197C10.8603 15.0791 11.0511 15.0001 11.25 15.0001H12.75C12.9489 15.0001 13.1397 15.0791 13.2803 15.2197C13.421 15.3604 13.5 15.5511 13.5 15.7501C13.5 15.949 13.421 16.1397 13.2803 16.2804C13.1397 16.421 12.9489 16.5001 12.75 16.5001ZM18.75 16.5001H15.75C15.5511 16.5001 15.3603 16.421 15.2197 16.2804C15.079 16.1397 15 15.949 15 15.7501C15 15.5511 15.079 15.3604 15.2197 15.2197C15.3603 15.0791 15.5511 15.0001 15.75 15.0001H18.75C18.9489 15.0001 19.1397 15.0791 19.2803 15.2197C19.421 15.3604 19.5 15.5511 19.5 15.7501C19.5 15.949 19.421 16.1397 19.2803 16.2804C19.1397 16.421 18.9489 16.5001 18.75 16.5001ZM3 8.25006V6.00006H21V8.25006H3Z" fill="white"/>
</g>
<defs>
<clipPath id="clip0_1512_132">
<rect width="24" height="24" fill="white"/>
</clipPath>
</defs>
</svg>
