<svg xmlns="http://www.w3.org/2000/svg" width="24" height="24" viewBox="0 0 24 24" fill="none"> <path d="M1.2574 11.8173C1.09268 11.6524 1.00011 11.4289 1 11.1958V3C1 1.89543 1.89543 1 3 1H11.1958C11.4289 1.00011 11.6524 1.09268 11.8173 1.2574L22.7425 12.1825C22.9074 12.3475 23 12.5713 23 12.8046C23 13.0379 22.9074 13.2616 22.7425 13.4266L13.4299 22.7425C13.2649 22.9074 13.0412 23 12.8079 23C12.5746 23 12.3508 22.9074 12.1858 22.7425L1.2574 11.8173Z" stroke="#45EB85" stroke-width="2" stroke-linecap="round" stroke-linejoin="round"></path> <path d="M6 7C6.55228 7 7 6.55228 7 6C7 5.44772 6.55228 5 6 5C5.44772 5 5 5.44772 5 6C5 6.55228 5.44772 7 6 7Z" fill="#ACACAC"></path> </svg>