<svg xmlns="http://www.w3.org/2000/svg" xmlns:xlink="http://www.w3.org/1999/xlink" version="1.1" id="Layer_1" x="0px" y="0px" viewBox="0 0 299 125" style="enable-background:new 0 0 299 125;" xml:space="preserve"> 				<g> 					<path d="M144,0h132c13,0,23,10,23,23v79c0,13-10,23-23,23H144c-12,0-22-10-22-23V23C122,10,132,0,144,0z M132,107l35-35   c4-4,11,3,7,7l-35,35c2,1,3,1,5,1h132c2,0,4,0,5-1l-34-35c-5-4,2-11,7-7l34,35c0-1,1-3,1-5V23l-60,50c-11,9-27,8-37,0l-60-50v79   C132,104,132,106,132,107z M136,13l62,52c7,5,17,5,24,0l63-52c-3-2-6-3-9-3H144C141,10,138,11,136,13z"></path> 					<path d="M49,95c-6,0-6,9,0,9h53c6,0,6-9,0-9H49z"></path> 					<path d="M53,69c-6,0-6,9,0,9h49c6,0,6-9,0-9H53z"></path> 					<path d="M35,78c6,0,6-9,0-9H23c-6,0-6,9,0,9H35z"></path> 					<path d="M4,47c-5,0-5,9,0,9h98c6,0,6-9,0-9H4z"></path> 					<path d="M43,21c-6,0-6,9,0,9h11c6,0,6-9,0-9H43z"></path> 					<path d="M102,30c6,0,6-9,0-9H70c-6,0-6,9,0,9H102z"></path> 				</g> 			</svg>