<svg xmlns="http://www.w3.org/2000/svg" width="27" height="22" viewBox="0 0 27 22" fill="none"> <path d="M16 4.75H18.9216C19.2273 4.75 19.3802 4.75 19.524 4.78454C19.6516 4.81516 19.7735 4.86566 19.8854 4.9342C20.0115 5.0115 20.1196 5.1196 20.3358 5.33579L25.4142 10.4142C25.6304 10.6304 25.7385 10.7385 25.8158 10.8646C25.8843 10.9765 25.9348 11.0984 25.9655 11.226C26 11.3698 26 11.5227 26 11.8284V15.375C26 15.9574 26 16.2486 25.9048 16.4784C25.778 16.7846 25.5346 17.028 25.2284 17.1548C24.9986 17.25 24.7074 17.25 24.125 17.25M17.875 17.25H16M16 17.25V5C16 3.59987 16 2.8998 15.7275 2.36502C15.4878 1.89462 15.1054 1.51217 14.635 1.27248C14.1002 1 13.4001 1 12 1H5C3.59987 1 2.8998 1 2.36502 1.27248C1.89462 1.51217 1.51217 1.89462 1.27248 2.36502C1 2.8998 1 3.59987 1 5V14.75C1 16.1307 2.11929 17.25 3.5 17.25M16 17.25H11M11 17.25C11 19.3211 9.32107 21 7.25 21C5.17893 21 3.5 19.3211 3.5 17.25M11 17.25C11 15.1789 9.32107 13.5 7.25 13.5C5.17893 13.5 3.5 15.1789 3.5 17.25M24.125 17.875C24.125 19.6009 22.7259 21 21 21C19.2741 21 17.875 19.6009 17.875 17.875C17.875 16.1491 19.2741 14.75 21 14.75C22.7259 14.75 24.125 16.1491 24.125 17.875Z" stroke="#ACACAC" stroke-width="2" stroke-linecap="round" stroke-linejoin="round"></path> </svg>