<svg xmlns="http://www.w3.org/2000/svg" width="591.595" height="185.018" viewBox="0 0 591.595 185.018"><g transform="translate(-163.731 -165.976)"><path d="M231.112,258.623a48.524,48.524,0,0,0,6.226-23.165h-.044v-8.24H211.063v8.24c-.023,12.741-8.871,21.984-21.058,21.984V165.976l-26.274,26.263v112.7h26.784c-2.33-12.327,4.518-26.739,20.55-26.79,12.2,0,21.059,9.265,21.059,22.031a25.972,25.972,0,0,1-.434,4.759h26.375c.173-1.544.288-3.128.334-4.759A45.127,45.127,0,0,0,231.112,258.623Z" fill="#fff"></path><path d="M530.024,234.28v24.99c-.028,12.735-8.876,21.971-21.059,21.971-12.14,0-20.971-9.175-21.059-21.84V234.28H461.631v24.99c-.028,12.734-8.876,21.971-21.06,21.971S419.539,272,419.513,259.265V234.28H393.239v24.929c-.375,41.646,52.877,60.836,81.531,31.8,28.672,29.04,81.9,9.83,81.53-31.8V234.28Z" fill="#fff"></path><path d="M755.326,234.292H729.038v25.569c-.869,28.79-42.147,27.929-42.1-.831h0v-.682l-.025-45.057H660.664v45.754c-.479,34.292,37.657,55.831,68.374,41.082v5.978a21.112,21.112,0,0,1-21.043,21.25v23.639c24.225-.135,45.871-17.333,47.33-43.543h0Z" fill="#fff"></path><path d="M608.549,213.291c-26.542,0-47.334,20.079-47.334,45.713-.991,35.346,36.978,55.861,68.284,40.825v4.849h26.385V265C655.884,233.1,637.747,213.291,608.549,213.291Zm0,67.745c-28.152-.089-27.84-44.3,0-44.388,12.2,0,21.059,9.4,21.059,22.356C629.609,271.77,620.752,281.036,608.549,281.036Z" fill="#fff"></path><path d="M362.069,304.941h26.275V165.976l-26.275,26.263Z" fill="#fff"></path><path d="M309.891,213.291c-26.542,0-47.334,20.08-47.334,45.713,1.739,60.671,92.939,60.654,94.669,0C357.226,233.371,336.434,213.291,309.891,213.291Zm0,67.745c-28-.092-27.994-43.974,0-44.064,12.2,0,21.059,9.266,21.059,22.032S322.094,281.036,309.891,281.036Z" fill="#fff"></path></g></svg> 