<svg version="1.1" id="Layer_1" xmlns="http://www.w3.org/2000/svg" xmlns:xlink="http://www.w3.org/1999/xlink" x="0px" y="0px" viewBox="0 0 512 132.1" style="enable-background:new 0 0 512 132.1;" xml:space="preserve">     <style type="text/css">         .dakotaLogo{             fill: #db3d68;         }         .stDakotaLogo{fill-rule:evenodd;clip-rule:evenodd;}     </style>     <path class="dakotaLogo" d="M511.7,120.5l-3.3-8.2c-1.1-2.4-2.7-2.9-4.6-2c-2.2,1.1-5.8,2.7-8.6,2.7c-4.5,0-4.7-5.5-4.4-8.6l4.9-38.2                          c0.5-4.9,0.9-6.9,1.6-12.6c0.7-5.3-1.1-6.4-5.3-8.4c-9.5-4.6-16.9-7.1-29-7.1c-35.1,0-56.3,35.5-54.8,62.1c0.2,3.9,0.9,7.5,2.1,10.7                          c-3.6,1.2-8.2,2.2-13.9,2.2c-6.9,0-13.8-4.2-12.2-15.8l6.4-40.4h23.1c2.9,0,4-1.6,4.5-3.6l1.7-9.1c0.6-2.7-1.3-4.6-3.6-4.6h-23.3                          c0.4-2.2,2.2-16,2.2-16c0.5-3.3-1.1-4.5-3.3-4.5h-6.7c-2.4,0-3.8,0.9-6,4.2c-3.6,5.5-7.8,14.2-18.6,17.3c-13.1,3.8-21-0.5-33.2-1.6                          c-2.5-0.4-6.7-0.7-9.7-0.7c-36,0-53.5,27.5-51.9,57.2c0.3,6.3,2,12.1,4.9,17.1c-2.2,0.7-4.6,1.3-7.2,1.3c-2.2,0-7.3-1.3-10.9-6.9                          l-14.4-22.9L254,73.7c9.7-6.4,15.8-13.8,17.5-19.5c2-6.9-1.3-12.7-5.6-14.8c-4.2-1.8-8.6-2-12.9-1.8c-4,0.2-8.6,0.7-11.5,1.3                          c-2.7,0.5-3.6,1.5-3.8,3.5l-0.9,8.2c-0.2,2,1.1,2.7,2.7,2.7h4.2c2.7,0,3.8,0.5,4,1.8c0.4,2.6-4,5.1-12,9.3c-6.5,3.4-12.2,6-18.4,8.4                          l2.7-22.2l1.1-8.2l2.4-17.9l1.3-9.8c0.6-4.2,0-7.5-3.1-9.8c-3.6-2.7-8-2.7-15.3-2.2c-5.8,0.4-10.4,0.9-13.7,1.5                          c-2.6,0.3-3.6,1.5-3.8,3.5l-0.9,8.2c-0.2,2,1.1,2.7,2.7,2.7h6.4c3.6,0,5.3,1.6,4.9,6l-11.5,86.4c-2.2,1-5,2.1-7.3,2.1                          c-4.5,0-4.7-5.5-4.4-8.6l4.9-38.2c0.5-4.9,0.9-6.9,1.6-12.6c0.7-5.3-1.1-6.4-5.3-8.4c-9.5-4.6-16.9-7.1-29-7.1                          c-35.2,0-56.3,35.5-54.8,62.1c0.2,3.8,0.9,7.2,1.9,10.4c-1.9,0.8-5.3,2.4-8.1,2.4c-4.4,0-4.6-5.3-4.2-7.8l12.2-90.7                          c0.5-4.2,0-7.5-3.1-9.8C91.4,2,87,2,79.7,2.5C73.9,2.9,69.3,3.4,66.1,4c-2.5,0.4-3.6,1.4-3.8,3.5l-0.9,8.2c-0.2,2,1.1,2.7,2.7,2.7                          h6.4c3.8,0,5.5,1.6,4.9,6.2L73,44.4c-6.9-4.7-15.7-6.2-22.6-6.2C18.5,38.2-0.2,67,1.1,93.9c1.1,20.4,14.2,37,37.3,37                          c9.1,0,22-2.6,30.8-15.7c0.5,8.9,4.5,15.7,12.6,15.7c9.1,0,19.1-4.2,22.8-5.8c0.9-0.4,1.6-1,2-1.7c5.6,4.9,13.1,7.5,22,7.5                          c13.3,0,26.8-7.8,33.7-20.4c-1.3,14.9,6.9,20.4,13.7,20.4c3.9,0,8.8-0.6,13.8-2.3c0.7,0.6,1.5,0.9,2.5,0.9h13.5                          c2.9,0,3.8-1.6,4.2-4.4l4.4-33.7l18.4,25.1c8,10.9,17.5,13.7,25.3,13.7c8.4,0,15.7-2.4,21.3-5.3c0.8-0.4,1.4-0.8,1.8-1.3                          c6.7,4.6,15.3,7.3,25.4,7.3c35.7,0,53.5-27.5,52.1-55.9c-0.4-6.6-2-12.7-4.9-18h16L363.3,97c-2.7,17.7,5.6,33.9,30.4,33.9                          c11.5,0,20.8-3,26.8-6.1c5.4,4,12.2,6.1,20.2,6.1c13.3,0,26.8-7.8,33.7-20.4c-1.3,14.9,6.9,20.4,13.7,20.4c5.8,0,13.9-1.3,21.1-5.7                          C510.8,124.3,512.8,123.2,511.7,120.5L511.7,120.5z M69.5,70.4l-3.3,20.4c-2,13.1-12.8,21.9-22.9,21.9c-11.6,0-19.3-8.6-19.9-21.1                          c-0.9-17.1,9.7-36,29.7-36C63.5,55.5,71,60.8,69.5,70.4L69.5,70.4z M162.9,64.8l-2.4,15.7c-3.1,20-17.7,32.4-29.7,32.4                          c-7.1,0-10.9-5.5-11.8-16.6c-1.6-18.9,11.3-40.8,30.4-40.8C156.8,55.5,163.9,59.3,162.9,64.8L162.9,64.8z M310.1,113.6                          c-13.1,0-20.4-8.4-21.1-22c-0.9-16.2,6.2-35.9,25.7-35.9c14,0,20.6,7.8,21.1,21.3C336.7,91.5,329,113.6,310.1,113.6L310.1,113.6z                          M475.1,64.8l-2.4,15.7c-3.1,20-17.7,32.4-29.7,32.4c-7.1,0-10.9-5.5-11.8-16.6c-1.6-18.9,11.3-40.8,30.4-40.8                          C468.9,55.5,476,59.3,475.1,64.8L475.1,64.8z"></path> </svg>