<svg xmlns="http://www.w3.org/2000/svg" xmlns:xlink="http://www.w3.org/1999/xlink" version="1.1" id="button-busca" x="0px" y="0px" viewBox="0 0 437.5 438" style="enable-background:new 0 0 437.5 438;" xml:space="preserve"><g><g> 						<path d="M433.8,414.6L327.6,308.4c28.5-32.7,45.7-75.5,45.7-122.2C373.3,83.5,289.8,0,187.1,0C84.3,0,0.8,83.6,0.8,186.3    s83.6,186.3,186.3,186.3c46.7,0,89.4-17.2,122.2-45.7L415.4,433c2.5,2.5,5.9,3.9,9.2,3.9c3.3,0,6.7-1.3,9.2-3.9    C438.8,428,438.8,419.6,433.8,414.6z M26.9,186.3c0-88.3,71.8-160.1,160-160.1c88.3,0,160.1,71.9,160.1,160.1    s-71.8,160.2-160.1,160.2C98.8,346.5,26.9,274.6,26.9,186.3z" style="fill: #222222;"></path></g></g> 					</svg>