<svg version="1.1" id="Layer_1" xmlns="http://www.w3.org/2000/svg" xmlns:xlink="http://www.w3.org/1999/xlink" x="0px" y="0px" viewBox="0 0 500 438" style="enable-background:new 0 0 500 438;" xml:space="preserve"> 				<style type="text/css"> 					.st0{fill:#020203;} 				</style> 				<g> 					<path class="st0" d="M133.4,384c0,29.8,24.2,54,54,54s54-24.2,54-54s-24.2-54-54-54S133.4,354.3,133.4,384z M217.2,384 										 c0,16.4-13.4,29.8-29.8,29.8s-29.8-13.4-29.8-29.8s13.4-29.8,29.8-29.8C203.8,354.3,217.2,367.6,217.2,384z"></path> 					<path class="st0" d="M309.9,384c0,29.8,24.2,54,54,54s54-24.2,54-54s-24.2-54-54-54S309.9,354.3,309.9,384z M393.7,384 										 c0,16.4-13.4,29.8-29.8,29.8s-29.8-13.4-29.8-29.8s13.4-29.8,29.8-29.8C380.3,354.3,393.7,367.6,393.7,384z"></path> 					<path class="st0" d="M456.2,257.4l43.3-144.9c1.1-3.7,0.4-7.6-1.9-10.7c-2.3-3.1-5.9-4.9-9.7-4.9H103.5L91.2,46.3 										 c-6.6-27-30.6-46-58.4-46.2L12.2,0c0,0,0,0-0.1,0C5.4,0,0,5.3,0,12s5.3,12.1,12,12.2l20.6,0.1C49.3,24.4,63.7,35.8,67.7,52 										 L117,254.4c6.6,27.2,30.8,46.2,58.8,46.2h222.5C424.8,300.6,448.6,282.8,456.2,257.4z M398.3,276.4H175.7 										 c-16.8,0-31.3-11.4-35.3-27.7l-31.1-127.6h362.3L433,250.5C428.5,265.7,414.2,276.4,398.3,276.4z"></path> 				</g> 			</svg>