<svg version="1.1" id="Layer_1" xmlns="http://www.w3.org/2000/svg" xmlns:xlink="http://www.w3.org/1999/xlink" x="0px" y="0px" viewBox="0 0 157.9 37.3" style="enable-background:new 0 0 157.9 37.3;" xml:space="preserve"> 											<style type="text/css"> 												.st0{fill-rule:evenodd;clip-rule:evenodd;} 											</style> 											<polygon class="st0" points="3.6,33.8 0,33.8 0,9.1 5.6,9.1 13.2,28.2 20.7,9.1 26.3,9.1 26.3,33.8 22.7,33.8 23,12.4 14.5,33.8 11.8,33.8 3.4,12.4 3.6,33.8 " fill="#fff"></polygon> 											<polygon class="st0" fill="#fff" points="34.2,33.8 30.4,33.8 30.4,9.1 34.2,9.1 34.2,33.8 "></polygon> 											<polygon fill="#fff" class="st0" points="82,28.6 78.2,29.3 78.2,3.5 82,2.9 82,28.6 "></polygon> 											<polygon fill="#fff" class="st0" points="130.9,28 127.2,27.2 128.2,0 132,0.8 130.9,28 "></polygon> 											<polygon fill="#fff" class="st0" points="156.9,37.3 153.1,36.5 154.2,9.6 157.9,10.4 156.9,37.3 "></polygon> 											<path fill="#fff" class="st0" d="M37.3,26.2l3.9,0.2c0.1,1.4,0.5,2.5,1.4,3.3c0.8,0.9,1.9,1.3,3.3,1.4c1.5,0.1,2.7-0.3,3.6-1 											c0.9-0.8,1.3-1.8,1.3-3.2c0-1.2-0.3-2.1-1-2.8c-0.6-0.7-2-1.3-4.1-2c-0.1,0-0.3-0.1-0.5-0.2c-2.5-0.7-4.3-1.8-5.4-3.2 											c-0.5-0.6-0.9-1.3-1.1-1.9c-0.3-0.7-0.4-1.4-0.4-2.1c0-2.2,0.8-4,2.3-5.3c1.5-1.3,3.5-1.9,5.9-1.8c2.3,0.1,4.1,0.8,5.5,2.1 											c1.4,1.3,2.2,3,2.3,5.2l-4-0.2c-0.1-1-0.5-1.9-1.2-2.6c-0.7-0.7-1.6-1-2.7-1.1c-1.2-0.1-2.1,0.3-2.9,0.9c-0.7,0.7-1.1,1.6-1.1,2.7 											c0,0.4,0.1,0.8,0.2,1.1c0.1,0.4,0.3,0.7,0.6,1c0.6,0.6,1.8,1.2,3.7,1.8c0.9,0.2,1.6,0.5,2,0.6c2,0.7,3.4,1.8,4.5,3 											c1,1.3,1.5,2.8,1.5,4.5c0,2.5-0.8,4.5-2.4,6c-1.6,1.5-3.8,2.1-6.5,2c-2.5-0.1-4.6-1-6.2-2.5C38.1,30.6,37.3,28.6,37.3,26.2 											L37.3,26.2z"></path> 											<path fill="#fff" class="st0" d="M57.3,23.6l3.9,0.2c0.1,1.4,0.5,2.5,1.4,3.3c0.8,0.9,1.9,1.3,3.3,1.4c1.5,0.1,2.7-0.2,3.6-1 											c0.9-0.8,1.3-1.8,1.3-3.2c0-1.2-0.3-2.1-1-2.8c-0.6-0.7-2-1.4-4.1-2.1c-0.1,0-0.3-0.1-0.5-0.2c-2.5-0.7-4.3-1.8-5.4-3.2 											c-0.5-0.6-0.9-1.3-1.1-1.9c-0.3-0.7-0.4-1.4-0.4-2.2c0-2.2,0.8-4,2.3-5.3c1.5-1.3,3.5-1.9,5.9-1.7c2.3,0.1,4.1,0.9,5.5,2.2 											c1.4,1.3,2.2,3.1,2.3,5.2l-4-0.3c-0.1-1-0.5-1.9-1.2-2.6c-0.7-0.7-1.6-1.1-2.7-1.1c-1.2-0.1-2.1,0.2-2.9,0.9 											c-0.7,0.7-1.1,1.6-1.1,2.7c0,0.4,0.1,0.8,0.2,1.1c0.1,0.4,0.3,0.7,0.6,1c0.6,0.7,1.8,1.3,3.7,1.8c0.9,0.3,1.6,0.5,2,0.6 											c2,0.8,3.4,1.8,4.5,3.1c1,1.3,1.5,2.8,1.5,4.5c0,2.5-0.8,4.5-2.4,6c-1.6,1.4-3.8,2.1-6.5,1.9c-2.5-0.2-4.6-1-6.2-2.6 											C58.1,28,57.3,26,57.3,23.6L57.3,23.6z"></path> 											<path fill="#fff" class="st0" d="M84.5,19.9l4.4-0.2c0.1,1.4,0.6,2.4,1.6,3.2c1,0.8,2.2,1.1,3.7,1.1c1.7-0.1,3-0.5,4.1-1.4c1-0.9,1.5-2,1.5-3.3 											c0-1.2-0.4-2.1-1.1-2.7c-0.7-0.6-2.3-1.2-4.7-1.6c-0.1,0-0.3-0.1-0.6-0.1c-2.8-0.5-4.9-1.3-6.2-2.6c-0.6-0.6-1-1.2-1.3-1.8 											c-0.3-0.7-0.4-1.4-0.4-2.1c0-2.2,0.9-4.1,2.6-5.6c1.7-1.5,4-2.2,6.8-2.4c2.6-0.1,4.7,0.4,6.3,1.6c1.6,1.2,2.5,2.8,2.6,5l-4.6,0.2 											c-0.1-1-0.5-1.9-1.4-2.5c-0.8-0.6-1.9-0.9-3.1-0.8c-1.3,0.1-2.4,0.5-3.3,1.2c-0.8,0.8-1.3,1.7-1.3,2.8c0,0.4,0.1,0.8,0.2,1.1 											c0.2,0.3,0.4,0.7,0.7,0.9c0.7,0.6,2.1,1.1,4.3,1.4c1,0.2,1.8,0.3,2.3,0.4c2.2,0.6,3.9,1.4,5.1,2.6c1.1,1.2,1.7,2.6,1.7,4.4 											c0,2.5-0.9,4.6-2.8,6.2c-1.9,1.6-4.3,2.5-7.4,2.6c-2.9,0.1-5.2-0.5-7-1.9C85.5,24.2,84.5,22.3,84.5,19.9L84.5,19.9z"></path> 											<path fill="#fff" class="st0" d="M104.9,19l4.4,0c0.1,1.4,0.6,2.4,1.6,3.3c1,0.8,2.2,1.2,3.7,1.2c1.7,0,3-0.4,4.1-1.2c1-0.8,1.5-1.9,1.5-3.2 											c0-1.2-0.4-2.1-1.1-2.8c-0.7-0.7-2.3-1.3-4.7-1.9c-0.1,0-0.3-0.1-0.6-0.1c-2.8-0.6-4.9-1.6-6.2-2.9c-0.6-0.6-1-1.2-1.3-1.9 											c-0.3-0.7-0.4-1.4-0.4-2.1c0-2.2,0.9-4.1,2.6-5.4c1.7-1.4,4-2,6.8-2c2.6,0,4.7,0.7,6.3,1.9c1.6,1.3,2.5,3,2.6,5.1l-4.6,0 											c-0.1-1-0.5-1.9-1.4-2.5c-0.8-0.7-1.9-1-3.1-1c-1.3,0-2.4,0.3-3.3,1c-0.8,0.7-1.3,1.6-1.3,2.8c0,0.4,0.1,0.8,0.2,1.1 											c0.2,0.4,0.4,0.7,0.7,1c0.7,0.6,2.1,1.2,4.3,1.6c1,0.2,1.8,0.4,2.3,0.5c2.2,0.7,3.9,1.6,5.1,2.9c1.1,1.2,1.7,2.7,1.7,4.5 											c0,2.5-0.9,4.6-2.8,6.1c-1.9,1.5-4.3,2.3-7.4,2.3c-2.9,0-5.2-0.8-7-2.3C105.8,23.4,104.9,21.5,104.9,19L104.9,19z"></path> 											<path fill="#fff" class="st0" d="M138.2,14.4l3.1,0.9c2.2,0.6,3.8,0.7,4.8,0.3c1-0.4,1.6-1.4,1.6-2.8c0.1-1.5-0.4-2.7-1.4-3.7 											c-1-1-2.5-1.8-4.6-2.4l-3.2-0.9L138.2,14.4L138.2,14.4z M137.7,28.4l-4.2-1.2l1-26.2l6.9,1.9c1.9,0.5,3.4,1,4.4,1.5 											c1,0.4,1.9,1,2.6,1.6c1.2,1,2.2,2.2,2.8,3.5c0.7,1.4,1,2.8,0.9,4.1c-0.1,2.4-1.1,4.1-3,5c-1.9,0.9-4.4,1-7.6,0.1l-3.4-0.9 											L137.7,28.4L137.7,28.4z"></path> 										</svg>