<svg width="24" height="24" viewBox="0 0 24 24" fill="none" xmlns="http://www.w3.org/2000/svg">
<g clip-path="url(#clip0_1512_120)">
<path d="M20.97 6.20164L12.72 1.68758C12.4996 1.56578 12.2518 1.50189 12 1.50189C11.7482 1.50189 11.5004 1.56578 11.28 1.68758L3.03 6.20352C2.7944 6.33243 2.59772 6.52223 2.46052 6.7531C2.32331 6.98397 2.25061 7.24745 2.25 7.51602V16.4823C2.25061 16.7508 2.32331 17.0143 2.46052 17.2452C2.59772 17.4761 2.7944 17.6659 3.03 17.7948L11.28 22.3107C11.5004 22.4325 11.7482 22.4964 12 22.4964C12.2518 22.4964 12.4996 22.4325 12.72 22.3107L20.97 17.7948C21.2056 17.6659 21.4023 17.4761 21.5395 17.2452C21.6767 17.0143 21.7494 16.7508 21.75 16.4823V7.51695C21.7499 7.24791 21.6774 6.98385 21.5402 6.75244C21.403 6.52102 21.206 6.33078 20.97 6.20164ZM12 3.00008L19.5328 7.12508L16.7409 8.65227L9.20813 4.52727L12 3.00008ZM12 11.2501L4.46719 7.12508L7.64625 5.38414L15.1791 9.50914L12 11.2501ZM20.25 16.486L12.75 20.5913V12.5466L15.75 10.9051V14.2501C15.75 14.449 15.829 14.6398 15.9697 14.7804C16.1103 14.9211 16.3011 15.0001 16.5 15.0001C16.6989 15.0001 16.8897 14.9211 17.0303 14.7804C17.171 14.6398 17.25 14.449 17.25 14.2501V10.0838L20.25 8.44227V16.4823V16.486Z" fill="white"/>
</g>
<defs>
<clipPath id="clip0_1512_120">
<rect width="24" height="24" fill="white"/>
</clipPath>
</defs>
</svg>
