<svg xmlns="http://www.w3.org/2000/svg" width="27" height="21" viewBox="0 0 27 21" fill="none"> <path d="M18.5 17.4667L21 20L26 14.9333M26 7.33333H1M26 9.86667V5.05333C26 3.63454 26 2.92514 25.7275 2.38323C25.4878 1.90655 25.1054 1.519 24.635 1.27612C24.1002 1 23.4001 1 22 1H5C3.59987 1 2.8998 1 2.36502 1.27612C1.89462 1.519 1.51217 1.90655 1.27248 2.38322C1 2.92513 1 3.63453 1 5.05333V14.68C1 16.0988 1 16.8082 1.27248 17.3501C1.51217 17.8268 1.89462 18.2143 2.36502 18.4572C2.8998 18.7333 3.59987 18.7333 5 18.7333H13.5" stroke="#ACACAC" stroke-width="2" stroke-linecap="round" stroke-linejoin="round"></path> </svg>