<svg version="1.1" id="Layer_1" xmlns="http://www.w3.org/2000/svg" xmlns:xlink="http://www.w3.org/1999/xlink" x="0px" y="0px" viewBox="0 0 433.6 83.9" style="enable-background:new 0 0 433.6 83.9;" xml:space="preserve"> 											<path fill="#fff" d="M73.6,38.2c-2.8,2.5-5.1,3.6-6.6,3.4c-1.3-0.2-2.5-0.3-3.7-1c-1.3-0.7-2-1.4-2-2.2c0-0.4,1-2,3.1-4.7c2.3-2.9,3.6-5,4.1-6.1 											c1.2-3.1,1.9-6.2,1.9-9.5c0-5.9-2.6-10-7.7-12.2c-3.1-1.3-7.6-1.9-13.5-1.9c-5.2,0-10.7,2.3-16.7,6.9c-6.3,4.9-9.5,9.8-9.5,14.9 											c0,2.4,0.4,4.1,1.3,5c1.3,1.4,3.4,2.8,4.4,4.2c0.6,1,1.3,2.5-1.2,3.7c-4.7,2.4-8.1,2.7-9.3,2.8c-7.9,0.9-7.5-12.8-4.4-19.5 											c2.7-5.6,7.5-10.7,14.7-15.3c10.3-6.6,26-8.8,37.7-4.7c6.7,2.4,12.3,7.4,14,13.6C81.8,20.9,79.4,33.1,73.6,38.2L73.6,38.2z 											M64.8,14.7c-0.9-1.7-2.1-2.5-3.7-2.5c-1.9,0-4.8,1.3-8.6,4c-3.5,2.5-5.9,4.6-7.2,6.4c-2.2,3.1-3.7,6.4-4.6,9.8 											c-0.2,1-1.5,6.2-3.7,16.6c-2.5,11.8-0.6,28.3-17.3,30c-3.8,0.4-5.8-1.9-5.8-5.8c0-0.7,0.1-2,0.3-3.8c0.1-1.8,0.2-3.2,0.2-4.1 											c0-1.4-0.1-2.7-0.4-3.7c-3-1.6-6.5,0.2-9.6,3.6C1.9,68.2,0,69.8,0,71.3c0,4.4,2,7.6,6.1,9.8c3.1,1.6,6.9,2.4,11.4,2.4 											c5.5,0,10.3-0.8,14.3-2.5c4.5-1.9,9-5.1,13.3-9.7c4.3-4.6,7.4-11.2,9.2-19.8c1.1-7.2,2.2-14.3,3.3-21.4 											C59.1,22.5,61.4,17.4,64.8,14.7L64.8,14.7z M109.6,16.8c0,1.4-0.7,2.9-2.2,4.4c-1.4,1.5-3,2.3-4.5,2.3h-2c-3.5-1.8-5.3-4.1-5.3-6.7 											c0-1.6,0.8-3.1,2.2-4.6c1.5-1.5,3.1-2.2,4.8-2.2c1.8,0,3.4,0.9,4.9,2.6C108.9,14.2,109.6,15.6,109.6,16.8L109.6,16.8z M112.6,63.6 											c0.1,0.5,0.2,1,0.2,1.5c0,3.3-2.7,7.2-8,11.6c-3.2,2.6-5.3,4.3-6.5,5.1c-2.3,1.4-4.4,2.1-6.4,2.1c-5.9,0-8.6-4.9-9-14.7 											C82.6,61.4,85,50.4,88.3,43c1.5-3.3,2.4-7.5,4.1-7.8c5-0.8,9.7-1.9,14.3-2.3c-0.5,1.1-1.2,3.1-1.8,6.1c-1.3,7.4-7.1,17.5-8.1,27 											c-0.2,1.8-0.7,6.9,4.2,6.8C105.5,70.7,109.2,67.5,112.6,63.6L112.6,63.6z M170.9,62.9c1.6,5.6-5.2,10.8-8.7,14.1 											c-5,4.7-12.4,7.8-18.4,4.5c-10.9-6.1-2.6-22.3,1.4-30.3c1.8-3.7,2.6-6.3,2.8-7.6c-2.1,0.3-12,7.5-14.3,9.2c-2,1.5,2-6.7,2.6-8 											c0.6-1.2,9.8-8.3,10.9-8.8c2.1-1.1,5.8-3.5,8.6-3.5c4.8,0,7.2,2.7,7.2,8.3c0,0.5-1.4,5.3-4.4,14.5c-3,9.2-4.4,14.1-4.4,14.6 											c0,2.6,1,3.9,2.9,3.9c1.7,0,4.4-1.6,8-4.8C168.4,66.2,170.4,64.2,170.9,62.9L170.9,62.9z M137,44.2c0.2,0.6,0.2,1.2,0.2,1.8 											c0,1.9-1,4-3.1,6.3c-3.1,3.5-4.8,5.4-5,5.8c-1.7,2.7-2.7,6.4-3.1,11.2c-0.1,1.4-0.2,5-0.2,10.6c-0.9,0.4-5.5,1.4-13.7,3.1 											c0-13.3-0.8-23,4.1-35.6c2.2-5.9,3.9-9.9,5-12c5.4-1.1,10.1-2.2,14.1-3.3c-1.6,4.6-3.3,9.8-5,15.3v2.3 											C132.5,48.2,134.8,46.3,137,44.2L137,44.2z M229.3,69.9c-3.4,3.4-6.7,6.1-10.6,9.1c-4.1,3.1-9.2,6.2-14.8,4.3 											c-12.1-4.3-3.7-19.2-6.1-23.1c-0.9-0.1-1.8-0.2-2.7-0.2c-1-0.1-2-0.5-2.8-1.2v-2.3c1.6-1,3.9-1.5,6.7-1.5c2.6,0,4.9-1,7.1-3.1 											c2.8-2.7,4.4-6.7,1.3-9.8c-4.5-4.4-10.3-0.6-14.6,3.5c-3,2.8-5,5.5-6,7.9c-1.7,1.6-1.5,25.1-2.1,27.7c-1.4,0.4-13,1.6-13,1.8 											c0-19.9-0.1-35.7,8.2-54.4c1.3-3,3.8-8,7.5-15.3c0.6-1.1,1.1-2.3,1.7-3.4c0.9-1.6,1.8-2.6,2.7-3.1c3-1.4,7.1-2.8,12.2-4.5 											c4.8-1.6,7.7-2.4,8.5-2.4c1.6,0,2.7,1.4,3.5,4.2c0.4,1.6,0.6,3.1,0.6,4.4c0,4.6-1.6,9.1-4.7,13.5c-3.1,4.2-6.3,8.4-9.5,12.5 											c4-1,7.1-1.5,9.1-1.5c3.2,0,5.9,1,8.3,3c5.1,4.3,3.9,9.1,0.4,13.9c-4.7,6.4-13.4,6.2-15.8,9c2.5-1.5,8.1,1.7,7.2,5.7 											c-4,16.9,5.3,10,10.6,5.9c3.2-2.5,4.9-4.5,5.5-5.7c0.7-0.2,1.3-0.4,1.7,0.7V69.9L229.3,69.9z M211.8,10.6c0-0.8-0.3-1.6-0.8-2.5 											c-0.6-1-1.3-1.5-2.3-1.5c-3.6,0-7.3,4.8-11.1,14.4c-1.2,3-3.4,9.7-6.5,20C204.9,25.4,211.8,15.2,211.8,10.6L211.8,10.6z"></path> 																<path fill="#fff" d="M303.9,67.1c0.1,5.2-4.1,5.8-6.7,7.9c-1,0.8-17.1,11.4-33.7,6.9c-25.5-4.6-23.9-46.4-23.5-39.3 											c1.6-37.3,31.2-43.1,37.6-42.5c3.5,0.4,9.9-0.9,21.2,9.6c9.8,9.1,2.4,30.4-14.5,33.2c-4.3,0.7-18.1-1.6-14.2-9.6 											c0.8-1.7,9.6,0.5,10.9,0c12.3-3.9,11.4-15.2,7.7-22.6c-3.8-7.6-6.2-6.5-11.3-5.1c-10.4,7.3-16,14.2-19.5,27.7 											c-2.9,10.1,1.5,37.8,15.3,41.4c7.3,1.8,13.9,1.4,20.4-2.8c2.1-1.5,4.2-2.9,6.3-4.3c1.9-1.2,3-2.5,3.2-3.8 											C303.9,65.1,304.1,65.8,303.9,67.1L303.9,67.1z M365,70.6c-3.4,2.9-7.7,6.4-11.1,9.2c-3.3,2.7-6.7,4-10,4c-3.6,0-5.8-2-7.6-5.4 											c-1.5-2.8-1-6.6-1.1-9.7c-2,5.2-13.3,19-24.6,13.8c-4.3-2-7.6-8.8-7.8-13.4c-0.2-4.8,3.7-16.5,7.4-20.3c3.3-3.4,7.9-8.1,15.4-11.6 											c0,0.3,0.5,1,0.9,1.9c0.4,0.9,2.8,1.4,2.8,2c0,0.5-3.2,2.7-5.6,4.9c-13.4,11.9-7.6,25.5-4.8,26.4c3.9,3.2,7.8,1,10.6-2.4 											c2.4-2.8,9.6-14.3,9.6-18.7c0-7.9-1.6-11.1-5.9-11.1c-1.3,0-2.9,0.4-3.9,1c-0.1,0-3-1.1-3.8-4c4.6-1.5,10.2-3.3,14.1,0.8 											c1.2,1.2,2.3,2.5,3.5,3.8c1.2-0.6,3.4-1.8,6.5-3.6c2.4-1.4,3.8-2.1,4.2-2.1h3.7c-1.8,4.8-3.7,10.6-5.6,17.3 											c-2.2,7.5-3.2,12.5-3.2,14.9c0,3.9,0.7,6,2.1,5.8c7.7-1.6,12.4-6.6,14.2-8.4V70.6L365,70.6z M397.6,62.8c0.1,0.4,0.1,0.8,0.1,1.2 											c0,3.7-2.7,9.2-8.6,13.3c-5.6,3.9-10.3,5.8-14.3,5.8c-18.2,0-7.5-39.5-6.5-37.6c-0.9-0.5-4.7-0.7-6.6-0.5c-0.7-2.6,0.8-5.6,0-8h9.4 											c1.4-3.9,3.5-9.7,6.4-17.3c5.2-1.1,10.3-2.7,15.6-2.7c-2.5,5.7-3.9,13.8-7.1,19.1c0.9,0.5,7.2-0.2,9.2,0.5c-1.1,3,0.6,2.3-1.5,7.2 											c-2.4-0.1-5.3,0-8.4,0.3c-4,5-7.4,15.7-7.4,22.3c0,3.1,1.9,6.9,5.6,6.9c2.2,0,4.6-2.7,7.5-5C393.2,66.4,395.4,64.6,397.6,62.8 											L397.6,62.8z"></path> 																<path fill="#fff" d="M426.5,80.2c-6.6,3.8-12.2,2.5-18.5,2.9c-6.2,0.4-9.1-3.4-9-3.2c-0.8-0.9-1.1-1.8-1.1-2.9c0-2.6,3.9-6.5,6-8.7 											c0.8-0.9,1.6-0.9,2.3,0c0.4,0.3,1.3,2,2.6,5.2c1.1,2.5,2.7,3.8,4.9,3.8c2.5,0,4.8-1.2,7-3.5c2-2.2,3-4.4,3-6.4 											c0-1.8-0.8-4.2-2.4-7.2c-6-11.6-4.9-7.9-6.7-11.8c-0.2,0.2-2.9,3.4-8.1,9.6c-1.6,0.9-8.7,13.6-14.3,15.9l3.5-9.9 											c4.2-3.8,8.2-8.5,12.1-14.2c3.3-4.9,5.8-9.5,7.5-13.7c0,0.2,5.1,8.2,5.5,8.9C429.9,58.8,441.2,71.8,426.5,80.2L426.5,80.2z"></path> 										</svg>