<svg width="24" height="24" viewBox="0 0 24 24" fill="none" xmlns="http://www.w3.org/2000/svg">
<g clip-path="url(#clip0_1512_138)">
<path d="M21 4.50006V14.2501C21 14.6479 20.842 15.0294 20.5607 15.3107C20.2794 15.592 19.8978 15.7501 19.5 15.7501H10.5V17.2501C10.5001 17.3985 10.4562 17.5436 10.3738 17.667C10.2914 17.7905 10.1742 17.8867 10.0371 17.9435C9.89998 18.0003 9.74908 18.0152 9.60352 17.9862C9.45796 17.9572 9.32427 17.8857 9.21937 17.7807L6.96937 15.5307C6.89964 15.461 6.84432 15.3783 6.80658 15.2873C6.76884 15.1962 6.74941 15.0986 6.74941 15.0001C6.74941 14.9015 6.76884 14.8039 6.80658 14.7129C6.84432 14.6218 6.89964 14.5391 6.96937 14.4694L9.21937 12.2194C9.32427 12.1144 9.45796 12.0429 9.60352 12.0139C9.74908 11.9849 9.89998 11.9998 10.0371 12.0566C10.1742 12.1134 10.2914 12.2096 10.3738 12.3331C10.4562 12.4565 10.5001 12.6016 10.5 12.7501V14.2501H19.5V4.50006H9V5.25006C9 5.44897 8.92098 5.63974 8.78033 5.78039C8.63968 5.92104 8.44891 6.00006 8.25 6.00006C8.05109 6.00006 7.86032 5.92104 7.71967 5.78039C7.57902 5.63974 7.5 5.44897 7.5 5.25006V4.50006C7.5 4.10224 7.65804 3.72071 7.93934 3.4394C8.22064 3.1581 8.60218 3.00006 9 3.00006H19.5C19.8978 3.00006 20.2794 3.1581 20.5607 3.4394C20.842 3.72071 21 4.10224 21 4.50006ZM15.75 18.0001C15.5511 18.0001 15.3603 18.0791 15.2197 18.2197C15.079 18.3604 15 18.5511 15 18.7501V19.5001H4.5V9.75006H13.5V11.2501C13.4999 11.3985 13.5438 11.5436 13.6262 11.667C13.7086 11.7905 13.8258 11.8867 13.9629 11.9435C14.1 12.0003 14.2509 12.0152 14.3965 11.9862C14.542 11.9572 14.6757 11.8857 14.7806 11.7807L17.0306 9.53069C17.1004 9.46103 17.1557 9.37831 17.1934 9.28727C17.2312 9.19622 17.2506 9.09862 17.2506 9.00006C17.2506 8.9015 17.2312 8.8039 17.1934 8.71286C17.1557 8.62181 17.1004 8.53909 17.0306 8.46944L14.7806 6.21944C14.6757 6.11443 14.542 6.0429 14.3965 6.01391C14.2509 5.98493 14.1 5.99978 13.9629 6.05659C13.8258 6.11341 13.7086 6.20963 13.6262 6.33307C13.5438 6.45652 13.4999 6.60164 13.5 6.75006V8.25006H4.5C4.10218 8.25006 3.72064 8.4081 3.43934 8.6894C3.15804 8.97071 3 9.35224 3 9.75006V19.5001C3 19.8979 3.15804 20.2794 3.43934 20.5607C3.72064 20.842 4.10218 21.0001 4.5 21.0001H15C15.3978 21.0001 15.7794 20.842 16.0607 20.5607C16.342 20.2794 16.5 19.8979 16.5 19.5001V18.7501C16.5 18.5511 16.421 18.3604 16.2803 18.2197C16.1397 18.0791 15.9489 18.0001 15.75 18.0001Z" fill="white"/>
</g>
<defs>
<clipPath id="clip0_1512_138">
<rect width="24" height="24" fill="white"/>
</clipPath>
</defs>
</svg>
