<svg version="1.1" id="Layer_1" xmlns="http://www.w3.org/2000/svg" xmlns:xlink="http://www.w3.org/1999/xlink" x="0px" y="0px" viewBox="0 0 232.7 37.3" style="enable-background:new 0 0 232.7 37.3;" xml:space="preserve"> 											<style type="text/css"> 												.st0{fill-rule:evenodd;clip-rule:evenodd;} 											</style> 											<path fill="#fff" class="st0" d="M0,9.6c0.7,0,1.5,0.1,2.2,0.1c0.4-1.2,1.6-2.4,3-2.9c1.7,0,3.4,0,5,0c0,9.3,0,18.6,0,28 											c0.1,1.3,0.6,2.3,2.4,2.3c3.4,0,6.9-0.1,10.3-0.1c0-0.5,0-1.1,0-1.6c-3.7-0.5-4.9-2.4-4.7-5.2c0-7.6,0-15.3,0-22.9c2,0,3.9,0,5.8,0 											c2.4-0.5,3.5-5.5,3.4-7.3c-0.8,0-1.5,0-2.3,0c-0.4,0.8-0.7,1.7-2.5,1.5c-6.8,0-13.5,0-20.3,0C1.8,4.2-0.1,7,0,9.6L0,9.6z M212,1.4 											c-3.6,7.6-7.1,15.3-10.7,22.9c-3.3,7.2-4.3,11.7-0.6,12.9c3,0,6,0,9.1,0c0-0.7,0-1.4,0-2.2c-1.3-0.3-2.9-1.2-4.2-1.5 											c-0.2-1.4-0.2-2.5,0-3.9c0.5-0.9,0.9-2.4,3.5-2.6c2.9,0,5.7,0,8.6,0c0.7,2.4,1.8,4.9,2.4,7.3c0.4,1.4,1,2.3,3.2,2.9 											c3.1-0.1,6.3-0.2,9.4-0.2c-0.1-0.8-0.2-1.5-0.3-2.3c-2.6,0-3.2-1.2-3.6-2.4C224.5,22,220.2,11.7,216,1.4 											C214.7,1.4,213.4,1.4,212,1.4L212,1.4z M209.1,21.7c0-0.4,0-0.8,0-1.1c1.1-2.8,2.2-5.6,3.3-8.5c1.1,2.7,2.2,5.4,3.3,8.1 											c0.2,0.8-0.2,1.3-1.1,1.5C212.7,21.7,210.9,21.7,209.1,21.7L209.1,21.7z M155.3,1.6c10.3,0,21.8,0,22.6,0c7.3,4.9,6.7,13.2-1.8,16.6 											c3.8,1.1,6,4,7.9,9.2c1.1,3.7,2.6,6.9,6.1,8c0,0.5,0,1,0,1.5c-3.1,0-6.2-0.1-9.3-0.1c-2-0.4-2.4-2.1-3-3.6c-1.2-4.8-2.8-9-5.3-11.3 											c-1.8,0-3.6,0-5.4,0c0,3.4,0,6.9,0,10.4c0.4,1.5,1.7,2.6,4.8,3c0,0.5-0.1,1-0.1,1.5c-4.2,0-8.5,0-12.7,0c0-10.5,0-20.9,0-31.4 											c0.1-1-0.4-1.6-1.6-1.7c-0.7,0-1.4,0-2.1,0C155.3,3,155.3,2.3,155.3,1.6L155.3,1.6z M166.4,5.2v11.2c2,0,3.9,0,5.8,0 											c5.6-3.1,3.5-11.1-2.9-11.1L166.4,5.2L166.4,5.2z M131.2,1.4c-3.6,7.6-7.1,15.3-10.7,22.9c-3.3,7.2-4.3,11.7-0.6,12.9c3,0,6,0,9.1,0 											c0-0.7,0-1.4,0-2.2c-1.3-0.3-2.8-1.2-4.1-1.5c-0.4-1.4-0.5-2.5-0.1-3.9c0.5-0.9,0.9-2.4,3.5-2.6c2.9,0,5.7,0,8.6,0 											c0.7,2.4,1.8,4.9,2.4,7.3c0.4,1.4,1,2.3,3.2,2.9c3.1-0.1,6.3-0.2,9.4-0.2c-0.1-0.8-0.2-1.5-0.3-2.3c-2.6,0-3.2-1.2-3.6-2.4 											c-4.3-10.3-8.6-20.6-12.8-30.9C133.9,1.4,132.6,1.4,131.2,1.4L131.2,1.4z M128.2,21.7c0-0.4,0-0.8,0-1.1c1.1-2.8,2.2-5.6,3.3-8.5 											c1.1,2.7,2.2,5.4,3.3,8.1c0.2,0.8-0.2,1.3-1.1,1.5C131.9,21.7,130.1,21.7,128.2,21.7L128.2,21.7z M76.8,5.1c0,9.9,0,19.9,0,29.8 											c0,1,0.2,1.9,1.1,2.3c3.5,0,7,0,10.4,0c0-0.5,0-1.1,0-1.6c-3-0.6-4.5-2.6-5.3-5c0-5.4,0-10.7,0-16c5.8,7.6,11.5,15.1,17.3,22.7 											c3.3,0,6.5,0,9.7,0c0-0.7,0-1.3,0-2c-2.4-0.3-3.8-1.5-4.4-3.5c0-9.6,0-19.2,0-28.8c-0.1-0.8-0.5-1.2-1-1.3c-3.2,0-6.5,0-9.7,0 											c0,0.5,0.1,1,0.1,1.5c2.2,0.6,4.2,1.4,4.9,4.1c0,5.3,0.1,10.5,0.1,15.8c-0.3,0-0.7,0-1,0C93.8,15.9,88.7,8.8,83.5,1.7 											c-3.7,0-7.3,0-11,0c0,0.5,0,1,0,1.5C74.4,3.3,75.8,4,76.8,5.1L76.8,5.1z M47.3,1.4C43.7,9,40.2,16.7,36.6,24.3 											C33.3,31.5,32.3,36,36,37.2c3,0,6,0,9,0c0-0.7,0-1.4,0-2.2c-1.3-0.3-2.8-1.2-4.1-1.5c-0.3-1.4-0.4-2.5-0.1-3.9 											c0.5-0.9,0.9-2.4,3.5-2.6c2.9,0,5.7,0,8.6,0c0.7,2.4,1.8,4.9,2.4,7.3c0.4,1.4,1,2.3,3.2,2.9c3.1-0.1,6.3-0.2,9.4-0.2 											c-0.1-0.8-0.2-1.5-0.3-2.3c-2.6,0-3.2-1.2-3.6-2.4C59.7,22,55.5,11.7,51.2,1.4C50,1.4,48.7,1.4,47.3,1.4L47.3,1.4z M44.4,21.7 											c0-0.4,0-0.8,0-1.1c1.1-2.8,2.2-5.6,3.3-8.5c1.1,2.7,2.2,5.4,3.3,8.1c0.2,0.8-0.2,1.3-1.1,1.5C48,21.7,46.2,21.7,44.4,21.7 											L44.4,21.7z"></path> 										</svg>