<svg xmlns="http://www.w3.org/2000/svg" width="55" height="20" viewBox="0 0 55 20" fill="none">
<g id="Vtex">
<path id="Vector" d="M21.7522 0.282715H4.59779C3.26764 0.282715 2.41588 1.69681 3.0383 2.87239L4.7542 6.12163H1.64347C1.01188 6.12163 0.5 6.63397 0.5 7.26602C0.5 7.45178 0.545409 7.63433 0.631639 7.79854L6.15086 18.2448C6.4467 18.803 7.13884 19.0159 7.69705 18.7205C7.89978 18.6131 8.06536 18.4476 8.17269 18.2448L9.67164 15.4231L11.5522 18.9833C12.2141 20.2355 14.007 20.2378 14.6712 18.987L23.2695 2.8068C23.8772 1.6624 23.0479 0.282715 21.7522 0.282715ZM14.0465 7.19584L10.339 14.1741C10.1418 14.5456 9.68127 14.6869 9.30974 14.4901C9.17535 14.4186 9.06527 14.309 8.99372 14.1741L5.32203 7.2252C5.12526 6.85367 5.26699 6.3927 5.63852 6.19593C5.74768 6.13814 5.86923 6.10787 5.99262 6.10741H13.3924C13.8015 6.10741 14.1332 6.43903 14.1332 6.84817C14.1332 6.96926 14.1033 7.08897 14.0465 7.19584Z" fill="#F71963"/>
<path id="Vector_2" d="M39.9983 7.78884H38.1218V14.2199C38.1214 14.3419 38.0227 14.4405 37.9007 14.441H36.4536C36.3316 14.4405 36.233 14.3419 36.2325 14.2199V7.78884H34.3451C34.2281 7.79389 34.1291 7.70261 34.124 7.58519C34.124 7.5829 34.124 7.58061 34.124 7.57877V6.44126C34.1254 6.32384 34.2213 6.22981 34.3387 6.23119C34.341 6.23119 34.3433 6.23119 34.3451 6.23119H39.9978C40.1198 6.22568 40.2235 6.31925 40.2299 6.44126V7.57923C40.2235 7.70078 40.1198 7.79435 39.9983 7.78884Z" fill="#F71963"/>
<path id="Vector_3" d="M46.0216 14.3947C45.635 14.4498 44.9846 14.5383 43.7916 14.5383C42.3665 14.5383 41.1074 14.1736 41.1074 12.1633V8.49389C41.1074 6.48352 42.3779 6.12988 43.8026 6.12988C44.9951 6.12988 45.635 6.21841 46.0216 6.27345C46.1762 6.29546 46.2427 6.35096 46.2427 6.49453V7.52333C46.2423 7.64534 46.1437 7.74395 46.0216 7.74441H43.6925C43.1733 7.74441 42.9857 7.921 42.9857 8.49572V9.50113H45.9336C46.0556 9.50159 46.1542 9.60021 46.1547 9.72221V10.7717C46.1542 10.8937 46.0556 10.9923 45.9336 10.9927H42.9857V12.1637C42.9857 12.738 43.1733 12.915 43.6925 12.915H46.0216C46.1437 12.9155 46.2423 13.0141 46.2427 13.1361V14.1635C46.2427 14.3062 46.1762 14.3727 46.0216 14.3947Z" fill="#F71963"/>
<path id="Vector_4" d="M54.3567 14.4386H52.6004C52.4569 14.4386 52.3904 14.3927 52.3133 14.273L50.7905 11.8553L49.4108 14.2198C49.3333 14.3523 49.2562 14.4408 49.1356 14.4408H47.5009C47.3904 14.4408 47.3353 14.3743 47.3353 14.2973C47.3376 14.2702 47.3449 14.2441 47.3573 14.2198L49.7502 10.2293L47.3326 6.44021C47.3202 6.42002 47.3128 6.39709 47.3105 6.3737C47.3188 6.2893 47.3917 6.22646 47.4761 6.23013H49.2544C49.376 6.23013 49.4645 6.34067 49.5296 6.44021L50.9428 8.67165L52.3105 6.44021C52.3656 6.34067 52.4651 6.23013 52.5857 6.23013H54.2205C54.3049 6.22646 54.3778 6.2893 54.386 6.3737C54.3837 6.39709 54.3764 6.42002 54.364 6.44021L51.9583 10.2527L54.4672 14.2198C54.487 14.2537 54.498 14.2913 54.5003 14.3303C54.5007 14.3945 54.4452 14.4386 54.3567 14.4386Z" fill="#F71963"/>
<path id="Vector_5" d="M31.4759 6.25333C31.3947 6.25333 31.3245 6.31112 31.3089 6.39093L29.7054 12.3257C29.6834 12.4473 29.6503 12.4913 29.5508 12.4913C29.4513 12.4913 29.4183 12.4454 29.3962 12.3257L27.7909 6.38956C27.7753 6.30975 27.7051 6.25195 27.6239 6.25195H26.0456C25.9516 6.25195 25.875 6.32855 25.875 6.42258C25.875 6.43542 25.8764 6.44827 25.8796 6.46111C25.8796 6.46111 27.8381 13.2674 27.8597 13.3343C28.1211 14.1453 28.7555 14.5328 29.5627 14.5328C30.3315 14.5328 31.0025 14.1269 31.2649 13.3366C31.2961 13.2449 33.211 6.46065 33.211 6.46065C33.2321 6.36892 33.1748 6.27718 33.0826 6.25608C33.0702 6.25333 33.0574 6.25195 33.045 6.25195L31.4759 6.25333Z" fill="#F71963"/>
<path id="Vector_6" d="M21.7522 0.282715H4.59779C3.26764 0.282715 2.41588 1.69681 3.0383 2.87239L4.7542 6.12163H1.64347C1.01188 6.12163 0.5 6.63397 0.5 7.26602C0.5 7.45178 0.545409 7.63433 0.631639 7.79854L6.15086 18.2448C6.4467 18.803 7.13884 19.0159 7.69705 18.7205C7.89978 18.6131 8.06536 18.4476 8.17269 18.2448L9.67164 15.4231L11.5522 18.9833C12.2141 20.2355 14.007 20.2378 14.6712 18.987L23.2695 2.8068C23.8772 1.6624 23.0479 0.282715 21.7522 0.282715ZM14.0465 7.19584L10.339 14.1741C10.1418 14.5456 9.68127 14.6869 9.30974 14.4901C9.17535 14.4186 9.06527 14.309 8.99372 14.1741L5.32203 7.2252C5.12526 6.85367 5.26699 6.3927 5.63852 6.19593C5.74768 6.13814 5.86923 6.10787 5.99262 6.10741H13.3924C13.8015 6.10741 14.1332 6.43903 14.1332 6.84817C14.1332 6.96926 14.1033 7.08897 14.0465 7.19584Z" fill="#F71963"/>
</g>
</svg>