<svg width="56" height="57" viewBox="0 0 56 57" fill="none" xmlns="http://www.w3.org/2000/svg">
<rect width="56" height="56" rx="28" transform="matrix(-1 0 0 1 56 0.0180664)" fill="white"/>
<path d="M28 0.0180664C12.536 0.0180664 0 12.5541 0 28.0181C0 43.482 12.536 56.0181 28 56.0181C43.464 56.0181 56 43.482 56 28.0181C56 12.5541 43.464 0.0180664 28 0.0180664ZM27.333 16.5239C28.1141 15.7431 29.3802 15.743 30.1611 16.5239C30.9419 17.3049 30.9419 18.571 30.1611 19.3521L23.4951 26.0181H37.707C38.8114 26.0183 39.707 26.9137 39.707 28.0181C39.707 29.1225 38.8114 30.0178 37.707 30.0181H23.4951L30.1611 36.6841C30.9418 37.4651 30.9419 38.7312 30.1611 39.5122C29.3802 40.2931 28.1141 40.293 27.333 39.5122L17.2529 29.4321C16.4719 28.6511 16.4719 27.3851 17.2529 26.604L27.333 16.5239Z" fill="#E50069"/>
</svg>
